<svg width="327" height="262" viewBox="0 0 327 262" fill="none" xmlns="http://www.w3.org/2000/svg">
<path d="M303.921 400L492 291.39L180.079 111.268L-8 219.877L303.921 400Z" fill="#2516DF"/>
<path d="M484.964 291.391L180.082 115.333L-0.960938 219.876L303.923 395.937L484.964 291.391Z" fill="#A9A2F6"/>
<path d="M245.43 360.606L301.697 328.113L360.183 361.885L303.913 394.378L245.43 360.606V360.606ZM180.721 258.255L232.615 288.221L176.348 320.713L124.453 290.745L180.721 258.255ZM354.662 217.743L300.044 249.281L248.151 219.315L302.768 187.776L354.662 217.743V217.743ZM369.127 289.176L423.743 257.635L482.227 291.408L427.609 322.947L369.127 289.176V289.176ZM364.996 291.56L423.481 325.331L364.31 359.501L305.827 325.728L364.996 291.56V291.56ZM304.173 251.667L358.789 220.127L419.613 255.251L364.996 286.79L304.173 251.667V251.667ZM236.745 285.836L184.85 255.869L244.022 221.7L295.915 251.667L236.745 285.836V285.836ZM297.569 325.728L241.3 358.221L180.477 323.098L236.745 290.604L297.569 325.728V325.728ZM240.874 288.221L300.044 254.051L360.868 289.176L301.697 323.344L240.874 288.221ZM358.815 215.37L358.803 215.35L358.791 215.358L302.768 183.005L116.194 290.745L303.913 399.148L490.487 291.408L358.815 215.37" fill="#F0EFFB"/>
<path d="M44.167 159.666V163.396C44.2843 164.429 45.0592 165.508 46.5367 166.352C48.5546 167.525 51.2991 167.971 53.6217 167.619C54.606 167.479 55.5212 167.197 56.272 166.751L98.3569 142.443C99.4596 141.833 99.9758 140.989 100.023 140.12L100.046 136.483L97.3715 136.695C94.5097 135.17 90.3578 135.029 87.9409 136.436L52.2834 157.015L46.3964 160.417L46.2791 159.666H44.167" fill="#C7784C"/>
<path d="M44.167 159.666V163.396C44.2843 164.429 45.0592 165.508 46.5367 166.352C48.5546 167.525 51.2992 167.971 53.6217 167.619V157.015H52.2834L46.3964 160.417L46.2791 159.666H44.167" fill="#DFCFB5"/>
<path d="M56.2715 163.239L98.3662 138.931C100.861 137.491 100.547 134.975 97.6669 133.312V133.31C94.7864 131.647 90.4295 131.468 87.9348 132.908L45.8401 157.216C43.3455 158.657 43.659 161.173 46.5394 162.836C49.4199 164.499 53.7768 164.68 56.2715 163.239" fill="white"/>
<path d="M245.839 154.062L245.826 154.039L245.811 154.045L180.691 116.44L0.728027 220.084L226.922 350.652L406.884 247.01L245.839 154.062Z" fill="#E8E6F9"/>
<path d="M406.883 213.586L357.744 185.21V152.668L362.956 154.555L357.741 151.564V148.313L322.878 131.235L322.738 131.481L253.776 91.9155L250.622 90.7731V88.506L212.316 28.5848L198.133 36.7807L166.685 45.175L40.5513 118.062L43.9634 117.151L43.8636 117.209V139.796L0.727539 164.705V103.65L180.7 9.42215e-05L406.883 130.562V213.586Z" fill="url(#paint0_linear_601_2927)"/>
<path d="M406.884 241.816L357.745 213.439V184.788L406.884 213.164V241.816ZM0.728027 214.414V164.283L43.8641 139.374V170.223V189.953L0.728027 214.414Z" fill="url(#paint1_linear_601_2927)"/>
<path d="M122.436 162.583L43.8638 117.21L169.997 44.3232L248.569 89.6966L122.436 162.583Z" fill="#A8A2F6"/>
<path d="M122.436 256.663V162.583L248.569 89.6969V183.777L122.436 256.663Z" fill="#7065F0"/>
<path d="M157.389 232.121L129.859 248.02V185.5L157.389 169.603V232.121Z" fill="#F7F7FD"/>
<path d="M43.8638 211.291V117.21L122.436 162.583V256.663L43.8638 211.291Z" fill="#A8A2F6"/>
<path d="M54.5098 139.607V200.096L65.0288 206.157V145.667L54.5098 139.607Z" fill="#F7F7FD"/>
<path d="M69.2246 148.099V208.588L79.7425 214.649V154.159L69.2246 148.099" fill="#F7F7FD"/>
<path d="M83.9395 156.59V217.08L94.4585 223.14V162.651L83.9395 156.59Z" fill="#F7F7FD"/>
<path d="M98.6543 165.081V225.57L109.172 231.632V171.143L98.6543 165.081Z" fill="#F7F7FD"/>
<path d="M272.904 201.301L163.724 138.662L248.564 89.6916L357.744 152.332L272.904 201.301Z" fill="#7065F0"/>
<path d="M272.904 295.458V201.302L357.744 152.333V246.488L272.904 295.458Z" fill="#7065F0"/>
<path d="M163.724 232.818V138.663L272.904 201.302V295.458L163.724 232.818Z" fill="#A8A2F6"/>
<path d="M265.377 284.491L171.25 230.137V167.906L265.377 222.261V284.491" fill="#F7F7FD"/>
<path d="M143.491 162.177L139.195 157.304L158.75 146.004L163.724 148.857V150.968L143.491 162.177" fill="#5245ED"/>
<path d="M163.724 150.968V148.858L163.732 148.863L163.734 150.962L163.724 150.968" fill="#013BA1"/>
<path d="M40.5513 118.063L86.1819 105.882L212.316 32.995L166.685 45.1759L40.5513 118.063Z" fill="#5598E9"/>
<path d="M124.488 165.802L86.1816 105.881L212.316 32.9943L250.621 92.9155L124.488 165.802Z" fill="#3F461D"/>
<path d="M250.622 88.5062V92.9155L124.489 165.802V161.392L250.622 88.5062Z" fill="#7065F0"/>
<path d="M97.442 138.411L83.1065 118.087L55.8702 124.144L43.8638 117.211L46.0866 116.586L86.1821 105.883L105.475 136.061L97.442 138.411Z" fill="#5245ED"/>
<path d="M43.8671 126.812L43.8638 117.21L55.8702 124.143L43.8671 126.812" fill="#5245ED"/>
<path d="M46.0864 116.585L86.0065 105.369L86.1819 105.644V105.882L46.0864 116.585" fill="#073CAE"/>
<path d="M40.5513 113.653L86.1819 101.473L212.316 28.586L166.685 40.7658L40.5513 113.653" fill="#CBC7FA"/>
<path d="M124.488 161.393L86.1816 101.473L212.316 28.5857L250.621 88.5069L124.488 161.393" fill="#A8A2F6"/>
<path d="M150.158 128.656L128.54 120.928L128.542 106.73L146.522 113.369L154.666 122.57L150.158 128.656" fill="#5245ED"/>
<path d="M128.539 105.631L120.723 101.118L128.491 96.6318L136.307 101.146L128.539 105.631" fill="#A8A2F6"/>
<path d="M128.541 105.589L120.146 100.739L128.489 95.9211L136.886 100.77L128.541 105.589" fill="#CBC7FA"/>
<path d="M128.542 107.047L136.886 102.228V100.77L128.542 105.589V107.047Z" fill="#2516DF"/>
<path d="M120.146 102.198L128.541 107.047V105.589L120.146 100.739V102.198Z" fill="#A8A2F6"/>
<path d="M134.024 101.136L128.53 104.316L128.512 104.298L123.017 101.119L128.494 97.9568L128.512 97.9754L134.024 101.136" fill="#2516DF"/>
<path d="M134.024 101.136L128.529 104.316L128.512 104.298V97.9755L134.024 101.136" fill="#A8A2F6"/>
<path d="M128.54 120.927L136.307 116.442V101.146L128.54 105.631V120.927Z" fill="#2516DF"/>
<path d="M120.725 108.783L128.54 120.927V105.631L120.725 101.117V108.783Z" fill="#A8A2F6"/>
<path d="M128.544 97.5623L127.44 96.9243L128.536 96.2919L129.64 96.9287L128.544 97.5623Z" fill="#A8A2F6"/>
<path d="M128.544 105.218L129.64 104.585V96.9285L128.544 97.5621V105.218Z" fill="#2516DF"/>
<path d="M127.44 104.581L128.544 105.218V97.5621L127.44 96.9241V104.581Z" fill="#A8A2F6"/>
<path d="M128.544 97.5623L127.8 97.1326L128.531 96.7128L129.282 97.1359L128.544 97.5623Z" fill="#096EA8"/>
<path d="M128.552 99.9114L128.544 99.907V97.5636L129.282 97.1372L129.637 97.3367V99.2877L128.552 99.9114" fill="#093B7D"/>
<path d="M128.544 99.9065L127.444 99.2664V97.3362L127.799 97.1334L128.544 97.5631V99.9065Z" fill="#096EA8"/>
<path d="M135.215 93.7056L134.111 93.0687L135.207 92.4352L136.312 93.072L135.215 93.7056Z" fill="#A8A2F6"/>
<path d="M135.214 101.361L136.312 100.728V93.0717L135.214 93.7054V101.361Z" fill="#2516DF"/>
<path d="M134.111 100.724L135.215 101.361V93.7054L134.111 93.0685V100.724Z" fill="#A8A2F6"/>
<path d="M135.215 93.7056L134.465 93.2737L134.945 92.992L135.691 93.4305L135.215 93.7056" fill="#096EA8"/>
<path d="M135.214 96.0601V93.7068L135.69 93.4317L136.312 93.7967V95.4265L135.214 96.0601Z" fill="#093B7D"/>
<path d="M135.211 96.0615L134.121 95.5551V93.4759L134.465 93.2742L135.215 93.7061V96.0593L135.211 96.0615Z" fill="#096EA8"/>
<path d="M121.828 93.686L120.723 93.0492L121.82 92.4157L122.924 93.0536L121.828 93.686Z" fill="#A8A2F6"/>
<path d="M121.828 101.343L122.924 100.709V93.0537L121.828 93.6863V101.343Z" fill="#2516DF"/>
<path d="M120.723 100.705L121.828 101.343V93.6862L120.723 93.0493V100.705Z" fill="#A8A2F6"/>
<path d="M121.828 93.686L121.337 93.4032L122.077 92.9714L122.564 93.2618L121.828 93.686Z" fill="#096EA8"/>
<path d="M121.828 96.0376V93.6865L122.564 93.2623L122.921 93.4761V95.4271L121.828 96.0376" fill="#093B7D"/>
<path d="M121.825 96.0386L120.73 95.405V93.7565L121.337 93.4036L121.828 93.6864V96.0375L121.825 96.0386Z" fill="#096EA8"/>
<path d="M128.545 97.551L119.31 92.2176L128.487 86.9181L137.723 92.2504L128.545 97.551" fill="white"/>
<path d="M128.545 99.1558L137.723 93.8552V92.2513L128.545 97.5519V99.1558Z" fill="#A8A2F6"/>
<path d="M119.31 93.8223L128.545 99.1558V97.5519L119.31 92.2184V93.8223Z" fill="#CBC7FA"/>
<path d="M267.868 208.609L158.688 145.969L192.841 114.176L302.021 176.816L267.868 208.609Z" fill="#5598E9"/>
<path d="M253.775 91.9162L213.696 77.4024L322.877 140.042L362.955 154.556L253.775 91.9162" fill="#DDB79B"/>
<path d="M322.878 140.042L302.021 176.816L192.841 114.176L213.697 77.4024L322.878 140.042" fill="#433E44"/>
<path d="M272.907 213.585L272.904 203.923V213.494L272.907 213.491V213.585Z" fill="#02288E"/>
<path d="M272.907 213.585L163.733 150.963V148.865L267.868 208.609L272.903 203.923V213.583" fill="#5245ED"/>
<path d="M163.733 141.272V138.715L163.909 138.614L165.568 139.565L163.733 141.272Z" fill="#02288E"/>
<path d="M163.733 138.714V138.513L163.909 138.614L163.733 138.714Z" fill="#0852BE"/>
<path d="M267.868 208.609L163.733 148.864V141.272L165.568 139.565L272.907 201.135L272.903 203.922L267.868 208.609" fill="#073CAE"/>
<path d="M280.313 197.025L302.021 176.816L322.878 140.042L321.02 138.976L322.878 140.042L357.386 152.539L347.124 158.462L322.878 149.693L303.684 183.534L280.313 197.025" fill="#5245ED"/>
<path d="M272.907 213.491V203.919L280.313 197.026L303.683 183.535L302.021 186.468L272.907 213.491ZM357.741 162.303L347.123 158.463L357.386 152.54L357.741 152.668V162.303" fill="#5245ED"/>
<path d="M272.907 203.919V201.135L272.904 195.037L296.158 173.452L302.021 176.816L280.313 197.025L272.907 203.919" fill="#033093"/>
<path d="M357.74 151.564L322.737 131.481L322.878 131.235L357.74 148.313V151.564" fill="url(#paint2_linear_601_2927)"/>
<path d="M357.741 152.668L357.385 152.54L322.878 140.044L321.019 138.977L322.878 135.7L320.967 134.604L322.737 131.483L357.741 151.566V152.668" fill="#073962"/>
<path d="M302.021 176.816L296.158 173.452L299.05 170.767L302.021 172.472L321.019 138.976L322.878 140.042L302.021 176.816" fill="#02132B"/>
<path d="M272.904 213.495V203.923L272.907 203.92V213.492L272.904 213.495Z" fill="#000D5A"/>
<path d="M272.904 203.924V201.135L272.907 201.138V203.921L272.904 203.924Z" fill="#00136E"/>
<path d="M267.868 204.266L158.688 141.625L192.841 109.834L302.021 172.474L267.868 204.266" fill="#A8A2F6"/>
<path d="M253.775 87.571L213.696 73.0582L322.877 135.698L362.955 150.211L253.775 87.571" fill="#A8A2F6"/>
<path d="M322.878 135.699L302.021 172.472L192.841 109.833L213.697 73.0593L322.878 135.699" fill="#CBC7FA"/>
<path d="M86.1819 101.473V105.882L40.5513 118.063V113.653L86.1819 101.473Z" fill="#A8A2F6"/>
<path d="M86.1816 101.472V105.881L124.488 165.802V161.392L86.1816 101.472" fill="#A8A2F6"/>
<path d="M362.956 154.556V150.212L322.878 135.699L302.021 172.473L267.868 204.265V208.609L302.021 176.816L322.878 140.042L362.956 154.556" fill="#2516DF"/>
<path d="M267.868 208.609V204.265L158.688 141.624V145.969L267.868 208.609" fill="#A8A2F6"/>
<path d="M223.376 122.148V99.6786L217.213 96.1167L215.93 84.0564H223.376L246.28 96.8118L245.891 100.114L240.013 109.677L223.376 122.148" fill="#5245ED"/>
<path d="M230.888 96.2461V108.988L223.376 122.148V99.6786L230.888 96.2461Z" fill="#2516DF"/>
<path d="M223.376 122.148L208.483 113.541V91.0727L223.376 99.6786V122.148Z" fill="#A8A2F6"/>
<path d="M221.291 99.1709L204.547 89.4939L216.207 82.971L232.952 92.648L221.291 99.1709Z" fill="#CBC7FA"/>
<path d="M221.291 98.4263L204.547 88.7482L216.207 82.2252L232.952 91.9022L221.291 98.4263Z" fill="white"/>
<path d="M222.411 100.974L230.889 96.2458L232.952 92.6489L221.291 99.1718L222.411 100.974Z" fill="#2516DF"/>
<path d="M204.547 89.4948L205.668 91.296L222.411 100.974L221.291 99.1718L204.547 89.4948Z" fill="#A8A2F6"/>
<path d="M221.291 99.1709V98.4254L232.952 91.9014V92.6479L221.291 99.1709" fill="#A8A2F6"/>
<path d="M221.291 99.1709V98.4254L204.547 88.7473V89.4939L221.291 99.1709" fill="#CBC7FA"/>
<path d="M209.807 113.167V95.3389L222.055 102.407V120.235L209.807 113.167Z" fill="#A8A2F6"/>
<path d="M211.242 97.831V112.339L220.619 117.743V103.235L211.242 97.831Z" fill="white"/>
<path d="M212.858 98.7639V111.652L220.619 116.121V117.743L211.242 112.34V97.831L212.858 98.7639" fill="#2516DF"/>
<path d="M212.858 111.652L211.242 112.34L220.619 117.743V116.121L212.858 111.652" fill="#CBC7FA"/>
<path d="M214.052 112.341H211.242L212.858 111.653V98.7646L214.084 99.4695L214.052 112.341" fill="#0C59BE"/>
<path d="M254.833 140.163L249.493 121.881L247.387 102.071H254.833L277.738 114.826L277.348 118.128L271.469 127.691L254.833 140.163" fill="#5245ED"/>
<path d="M262.345 114.259V127.003L254.833 140.163V117.694L262.345 114.259Z" fill="#2516DF"/>
<path d="M254.833 140.163L239.94 131.556V109.087L254.833 117.694V140.163Z" fill="#A8A2F6"/>
<path d="M252.748 117.188L236.003 107.511L247.665 100.988L264.408 110.666L252.748 117.188Z" fill="#CBC7FA"/>
<path d="M252.748 116.439L236.003 106.762L247.665 100.24L264.408 109.917L252.748 116.439Z" fill="white"/>
<path d="M253.867 118.989L262.345 114.26L264.408 110.665L252.748 117.187L253.867 118.989Z" fill="#2516DF"/>
<path d="M236.003 107.51L237.123 109.311L253.867 118.989L252.748 117.187L236.003 107.51Z" fill="#A8A2F6"/>
<path d="M252.748 117.188V116.441L264.408 109.918V110.666L252.748 117.188Z" fill="#A8A2F6"/>
<path d="M252.748 117.188V116.441L236.003 106.764V107.511L252.748 117.188Z" fill="#CBC7FA"/>
<path d="M241.262 131.183V113.355L253.511 120.423V138.25L241.262 131.183Z" fill="#A8A2F6"/>
<path d="M242.698 115.847V130.355L252.075 135.759V121.25L242.698 115.847Z" fill="white"/>
<path d="M244.314 116.78V129.669L252.075 134.137V135.759L242.698 130.356V115.847L244.314 116.78" fill="#2516DF"/>
<path d="M244.314 129.669L242.698 130.356L252.075 135.759V134.137L244.314 129.669" fill="#CBC7FA"/>
<path d="M242.698 130.355H245.51L245.541 117.484L244.314 116.779V129.668L242.698 130.355" fill="#2516DF"/>
<path d="M286.29 158.178L280.95 139.896L278.843 120.086H286.29L309.194 132.842L308.804 136.144L302.924 145.707L286.29 158.178" fill="#5245ED"/>
<path d="M293.801 132.276V145.019L286.29 158.178V135.71L293.801 132.276Z" fill="#2516DF"/>
<path d="M286.29 158.178L271.397 149.571V127.103L286.29 135.71V158.178Z" fill="#A8A2F6"/>
<path d="M284.203 135.203L267.459 125.526L279.121 119.003L295.864 128.681L284.203 135.203Z" fill="#CBC7FA"/>
<path d="M284.203 134.456L267.459 124.779L279.121 118.256L295.864 127.934L284.203 134.456Z" fill="white"/>
<path d="M285.323 137.005L293.801 132.277L295.864 128.681L284.203 135.203L285.323 137.005" fill="#2516DF"/>
<path d="M267.459 125.526L268.58 127.327L285.323 137.005L284.203 135.203L267.459 125.526" fill="#A8A2F6"/>
<path d="M284.203 135.203V134.456L295.864 127.934V128.681L284.203 135.203Z" fill="#A8A2F6"/>
<path d="M284.203 135.203V134.456L267.459 124.779V125.526L284.203 135.203" fill="#CBC7FA"/>
<path d="M272.718 149.199V131.37L284.967 138.437V156.265L272.718 149.199" fill="#A8A2F6"/>
<path d="M274.154 133.863V148.371L283.531 153.774V139.266L274.154 133.863" fill="white"/>
<path d="M275.77 134.795V147.684L283.53 152.153V153.774L274.154 148.372V133.862L275.77 134.795" fill="#2516DF"/>
<path d="M275.77 147.684L274.154 148.372L283.53 153.774V152.153L275.77 147.684Z" fill="#CBC7FA"/>
<path d="M274.154 148.371H276.966L276.996 135.5L275.77 134.795V147.684L274.154 148.371" fill="#2516DF"/>
<defs>
<linearGradient id="paint0_linear_601_2927" x1="203.806" y1="80.1095" x2="203.806" y2="189.753" gradientUnits="userSpaceOnUse">
<stop stop-color="#F7F7FD"/>
<stop offset="1" stop-color="#E8E6F9"/>
</linearGradient>
<linearGradient id="paint1_linear_601_2927" x1="203.807" y1="80.1112" x2="203.807" y2="189.755" gradientUnits="userSpaceOnUse">
<stop stop-color="#FFFCF7"/>
<stop offset="1" stop-color="#E8E6F9"/>
</linearGradient>
<linearGradient id="paint2_linear_601_2927" x1="203.806" y1="80.1096" x2="203.806" y2="189.753" gradientUnits="userSpaceOnUse">
<stop stop-color="#0850A1"/>
<stop offset="1" stop-color="#074CA1"/>
</linearGradient>
</defs>
</svg>
