<svg width="56" height="56" viewBox="0 0 56 56" fill="none" xmlns="http://www.w3.org/2000/svg">
<circle cx="28" cy="28" r="27.5" fill="white" stroke="#E0DEF7"/>
<circle cx="28" cy="28" r="24.5" fill="#E0DEF7"/>
<g clip-path="url(#clip0_601_2876)">
<path fill-rule="evenodd" clip-rule="evenodd" d="M16.3333 27.9999H18.9258V37.074C18.9258 37.7616 19.1989 38.421 19.6851 38.9072C20.1713 39.3934 20.8308 39.6666 21.5184 39.6666H34.4813C35.1689 39.6666 35.8284 39.3934 36.3146 38.9072C36.8008 38.421 37.0739 37.7616 37.0739 37.074V27.9999H37.074H39.6666L27.9999 16.3333L16.3333 27.9999Z" fill="white"/>
<path d="M18.9258 27.9999H19.9258C19.9258 27.4476 19.4781 26.9999 18.9258 26.9999V27.9999ZM16.3333 27.9999L15.6261 27.2928C15.3401 27.5788 15.2546 28.0089 15.4094 28.3826C15.5642 28.7563 15.9288 28.9999 16.3333 28.9999V27.9999ZM19.6851 38.9072L20.3922 38.2001L20.3922 38.2001L19.6851 38.9072ZM37.0739 27.9999V26.9999C36.5216 26.9999 36.0739 27.4476 36.0739 27.9999H37.0739ZM39.6666 27.9999V28.9999C40.071 28.9999 40.4357 28.7563 40.5905 28.3826C40.7452 28.0089 40.6597 27.5788 40.3737 27.2928L39.6666 27.9999ZM27.9999 16.3333L28.707 15.6261C28.5195 15.4386 28.2651 15.3333 27.9999 15.3333C27.7347 15.3333 27.4803 15.4386 27.2928 15.6261L27.9999 16.3333ZM18.9258 26.9999H16.3333V28.9999H18.9258V26.9999ZM17.9258 27.9999V37.074H19.9258V27.9999H17.9258ZM17.9258 37.074C17.9258 38.0268 18.3043 38.9406 18.978 39.6143L20.3922 38.2001C20.0936 37.9015 19.9258 37.4964 19.9258 37.074H17.9258ZM18.978 39.6143C19.6518 40.2881 20.5656 40.6666 21.5184 40.6666V38.6666C21.096 38.6666 20.6909 38.4988 20.3922 38.2001L18.978 39.6143ZM21.5184 40.6666H34.4813V38.6666H21.5184V40.6666ZM34.4813 40.6666C35.4342 40.6666 36.3479 40.2881 37.0217 39.6143L35.6075 38.2001C35.3088 38.4988 34.9037 38.6666 34.4813 38.6666V40.6666ZM37.0217 39.6143C37.6954 38.9406 38.0739 38.0268 38.0739 37.074H36.0739C36.0739 37.4964 35.9061 37.9015 35.6075 38.2001L37.0217 39.6143ZM38.0739 37.074V27.9999H36.0739V37.074H38.0739ZM37.074 26.9999H37.0739V28.9999H37.074V26.9999ZM39.6666 26.9999H37.074V28.9999H39.6666V26.9999ZM27.2928 17.0404L38.9595 28.707L40.3737 27.2928L28.707 15.6261L27.2928 17.0404ZM17.0404 28.707L28.707 17.0404L27.2928 15.6261L15.6261 27.2928L17.0404 28.707Z" fill="white"/>
<path d="M24.5 29.7501L26.8333 32.0834L31.5 27.4167" stroke="#7065F0" stroke-width="2" stroke-linecap="round" stroke-linejoin="round"/>
</g>
<path d="M35 35H56V45.5C56 51.299 51.299 56 45.5 56C39.701 56 35 51.299 35 45.5V35Z" fill="#7065F0"/>
<path d="M49.315 40.9325L46.1066 39.7308C45.7741 39.6083 45.2316 39.6083 44.8991 39.7308L41.6908 40.9325C41.0725 41.1658 40.5708 41.8891 40.5708 42.5483V47.2733C40.5708 47.7458 40.88 48.37 41.2591 48.65L44.4675 51.0475C45.0333 51.4733 45.9608 51.4733 46.5266 51.0475L49.735 48.65C50.1141 48.3641 50.4233 47.7458 50.4233 47.2733V42.5483C50.4291 41.8891 49.9275 41.1658 49.315 40.9325ZM45.9375 46.0075V47.5416C45.9375 47.7808 45.7391 47.9791 45.5 47.9791C45.2608 47.9791 45.0625 47.7808 45.0625 47.5416V46.0075C44.4733 45.8208 44.0416 45.2725 44.0416 44.625C44.0416 43.82 44.695 43.1666 45.5 43.1666C46.305 43.1666 46.9583 43.82 46.9583 44.625C46.9583 45.2783 46.5266 45.8208 45.9375 46.0075Z" fill="white"/>
<defs>
<clipPath id="clip0_601_2876">
<rect width="28" height="28" fill="white" transform="translate(14 14)"/>
</clipPath>
</defs>
</svg>
