<svg width="64" height="64" viewBox="0 0 64 64" fill="none" xmlns="http://www.w3.org/2000/svg">
<circle cx="32" cy="32" r="31.5" fill="white" stroke="#E0DEF7"/>
<circle cx="32" cy="32" r="28" fill="#E0DEF7"/>
<path d="M39.3734 26.3601C39.2801 26.3467 39.1867 26.3467 39.0934 26.3601C37.0267 26.2934 35.3867 24.6001 35.3867 22.5201C35.3867 20.4001 37.1067 18.6667 39.2401 18.6667C41.3601 18.6667 43.0934 20.3867 43.0934 22.5201C43.0801 24.6001 41.4401 26.2934 39.3734 26.3601Z" fill="white"/>
<path d="M43.72 35.6C42.2266 36.6 40.1333 36.9734 38.2 36.72C38.7066 35.6267 38.9733 34.4134 38.9866 33.1334C38.9866 31.8001 38.6933 30.5334 38.1333 29.4267C40.1066 29.16 42.2 29.5334 43.7066 30.5334C45.8133 31.92 45.8133 34.2 43.72 35.6Z" fill="white"/>
<path d="M24.5865 26.3601C24.6799 26.3467 24.7732 26.3467 24.8665 26.3601C26.9332 26.2934 28.5732 24.6001 28.5732 22.5201C28.5732 20.3867 26.8532 18.6667 24.7199 18.6667C22.5999 18.6667 20.8799 20.3867 20.8799 22.5201C20.8799 24.6001 22.5199 26.2934 24.5865 26.3601Z" fill="white"/>
<path d="M24.7332 33.1334C24.7332 34.4267 25.0132 35.6534 25.5199 36.7601C23.6399 36.9601 21.6799 36.5601 20.2399 35.6134C18.1332 34.2134 18.1332 31.9334 20.2399 30.5334C21.6666 29.5734 23.6799 29.1867 25.5732 29.4001C25.0266 30.5201 24.7332 31.7867 24.7332 33.1334Z" fill="white"/>
<path d="M32.1599 37.16C32.0532 37.1467 31.9332 37.1467 31.8132 37.16C29.3599 37.08 27.3999 35.0667 27.3999 32.5867C27.4132 30.0533 29.4532 28 31.9999 28C34.5332 28 36.5866 30.0533 36.5866 32.5867C36.5732 35.0667 34.6266 37.08 32.1599 37.16Z" fill="white"/>
<path d="M27.8267 39.92C25.8133 41.2667 25.8133 43.48 27.8267 44.8134C30.12 46.3467 33.88 46.3467 36.1733 44.8134C38.1867 43.4667 38.1867 41.2534 36.1733 39.92C33.8933 38.3867 30.1333 38.3867 27.8267 39.92Z" fill="white"/>
<path d="M40 48C40 43.5817 43.5817 40 48 40H56C60.4183 40 64 43.5817 64 48V56C64 60.4183 60.4183 64 56 64H48C43.5817 64 40 60.4183 40 56V48Z" fill="#7065F0"/>
<path d="M57.1933 53.9534C55.8199 55.32 53.8533 55.74 52.1266 55.2L48.9866 58.3334C48.7599 58.5667 48.3133 58.7067 47.9933 58.66L46.5399 58.46C46.0599 58.3934 45.6133 57.94 45.5399 57.46L45.3399 56.0067C45.2933 55.6867 45.4466 55.24 45.6666 55.0134L48.7999 51.88C48.2666 50.1467 48.6799 48.18 50.0533 46.8134C52.0199 44.8467 55.2133 44.8467 57.1866 46.8134C59.1599 48.78 59.1599 51.9867 57.1933 53.9534Z" fill="white"/>
<path d="M48.5933 55.6599L50.1266 57.1932" stroke="#7065F0" stroke-width="2" stroke-miterlimit="10" stroke-linecap="round" stroke-linejoin="round"/>
<path d="M53.6667 51.3333C54.219 51.3333 54.6667 50.8855 54.6667 50.3333C54.6667 49.781 54.219 49.3333 53.6667 49.3333C53.1145 49.3333 52.6667 49.781 52.6667 50.3333C52.6667 50.8855 53.1145 51.3333 53.6667 51.3333Z" fill="#7065F0" stroke="#7065F0" stroke-width="2" stroke-linecap="round" stroke-linejoin="round"/>
</svg>
