<svg width="64" height="64" viewBox="0 0 64 64" fill="none" xmlns="http://www.w3.org/2000/svg">
<circle cx="32" cy="32" r="31.5" fill="white" stroke="#E0DEF7"/>
<circle cx="32" cy="32" r="28" fill="#E0DEF7"/>
<path d="M22.6667 26.6667C20.4534 26.6667 18.6667 28.4534 18.6667 30.6667V41.3334C18.6667 43.5467 20.4534 45.3334 22.6667 45.3334H24.6667C26.1334 45.3334 27.3334 44.1334 27.3334 42.6667V29.3334C27.3334 27.8667 26.1334 26.6667 24.6667 26.6667H22.6667ZM24.0001 38.6667C24.0001 39.2134 23.5467 39.6667 23.0001 39.6667C22.4534 39.6667 22.0001 39.2134 22.0001 38.6667V33.3334C22.0001 32.7867 22.4534 32.3334 23.0001 32.3334C23.5467 32.3334 24.0001 32.7867 24.0001 33.3334V38.6667Z" fill="white"/>
<path d="M41.3333 18.6667H33.3333C31.1199 18.6667 29.3333 20.4534 29.3333 22.6667V41.3334C29.3333 43.5467 31.1199 45.3334 33.3333 45.3334H33.9999C34.3733 45.3334 34.6666 45.0401 34.6666 44.6667V40.0001C34.6666 39.2667 35.2666 38.6667 35.9999 38.6667H38.6666C39.3999 38.6667 39.9999 39.2667 39.9999 40.0001V44.6667C39.9999 45.0401 40.2933 45.3334 40.6666 45.3334H41.3333C43.5466 45.3334 45.3333 43.5467 45.3333 41.3334V22.6667C45.3333 20.4534 43.5466 18.6667 41.3333 18.6667ZM35.6666 33.3334C35.6666 33.8801 35.2133 34.3334 34.6666 34.3334C34.1199 34.3334 33.6666 33.8801 33.6666 33.3334V26.6667C33.6666 26.1201 34.1199 25.6667 34.6666 25.6667C35.2133 25.6667 35.6666 26.1201 35.6666 26.6667V33.3334ZM40.9999 33.3334C40.9999 33.8801 40.5466 34.3334 39.9999 34.3334C39.4533 34.3334 38.9999 33.8801 38.9999 33.3334V26.6667C38.9999 26.1201 39.4533 25.6667 39.9999 25.6667C40.5466 25.6667 40.9999 26.1201 40.9999 26.6667V33.3334Z" fill="white"/>
<path d="M40 48C40 43.5817 43.5817 40 48 40H56C60.4183 40 64 43.5817 64 48V56C64 60.4183 60.4183 64 56 64H48C43.5817 64 40 60.4183 40 56V48Z" fill="#7065F0"/>
<path d="M51.6666 57.9999C55.1644 57.9999 57.9999 55.1644 57.9999 51.6666C57.9999 48.1688 55.1644 45.3333 51.6666 45.3333C48.1688 45.3333 45.3333 48.1688 45.3333 51.6666C45.3333 55.1644 48.1688 57.9999 51.6666 57.9999Z" stroke="white" stroke-width="2" stroke-linecap="round" stroke-linejoin="round"/>
<path d="M58.6666 58.6666L57.3333 57.3333" stroke="white" stroke-width="2" stroke-linecap="round" stroke-linejoin="round"/>
</svg>
